# xmcd CD database file
#
# Track frame offsets:
#	150
#	17907
#	32733
#	52017
#	65320
#	82122
#	94478
#	113579
#	126503
#	146124
#	160491
#	174927
#	203649
#
# Disc length: 2975 seconds
#
# Revision: 0
# Processed by: cddbd v1.5PL3 Copyright (c) Steve Scherf et al.
# Submitted via: CDex 1.51
#
DISCID=ba0b9d0d
DTITLE=Allison 'J' and The Union - Generations
DYEAR=2000
DGENRE=Country
TTITLE0=Change Of Heart
TTITLE1=I Feel Lucky
TTITLE2=After All This Time
TTITLE3=Hey Good Looking
TTITLE4=Same Thing
TTITLE5=I Wanna Go Too Far
TTITLE6=I Take My Chances
TTITLE7=Is This Fella
TTITLE8=Widows Cry
TTITLE9=Why Haven't I Heard From You
TTITLE10='Boiling Cabbage'
TTITLE11=Knocking On Heavens Door
TTITLE12=The Weight
EXTD=YEAR: 2000
EXTT0=
EXTT1=
EXTT2=
EXTT3=
EXTT4=
EXTT5=
EXTT6=
EXTT7=
EXTT8=
EXTT9=
EXTT10=
EXTT11=
EXTT12=
PLAYORDER=
